<svg xmlns="http://www.w3.org/2000/svg" viewBox="0 0 1556.91 1477.92">
  <defs>
    <style>
      .cls-1,
      .cls-4 {
        fill: #ed1c24;
      }

      .cls-2 {
        fill: #fff;
        opacity: 0;
      }

      .cls-3 {
        fill: #f9ed32;
      }

      .cls-4 {
        opacity: 0.35;
      }
    </style>
  </defs>
  <g id="Layer_2" data-name="Layer 2">
    <g id="Layer_1-2" data-name="Layer 1">
      <path class="cls-1"
        d="M774.93,0,959.4,568.32l597.51,1.2L1073.64,917.76l184.8,560.16L864.13,1195.15a153.07,153.07,0,0,0-179.47.77l-386.22,282L476.52,916.8,0,568.62l589.92-.06Z" />
      <path class="cls-2"
        d="M674.22,757.18s179.4-23.92,207.59,29.47,16.57,119.18,16.57,119.18l-58,85.64S774,1027.56,686,986.34s-56.91-147.19-56.91-147.19Z" />
      <path class="cls-3"
        d="M927.36,589.94c11.89,52.32-66.06,85.62-66.06,85.62C927.36,559,796.54,435.33,796.54,435.33c0,218.83-212.5,237.85-212.5,413.73,0,82.82,54.51,128.8,122.56,145.83-.23-.14-83.37-51.85-62-125.78,0,0,19.63,69.6,41.92,62.9s-21.79-40.6-12.68-71.82,30.52-38.35,42.12-47.27,18.73-25.86,7.13-44.6c0,0,55.3,49.06,19.63,81.17s-33,47.27-15.17,57.08,78.49-.89,98.11-74c0,0,29.44,83.85,0,111.49,0,0,14.28,14.28,42.82-8.91,0,0-6.65,47.41-44.34,63,40.55-7.12,78.16-22.34,105-44.22C1028.53,873,927.36,589.94,927.36,589.94Z" />
      <path class="cls-4"
        d="M972.6,839.15c-.2.77-31.44,116.47-148.45,158.92,40.55-7.12,78.16-22.34,105-44.22C959.08,929.51,970.8,886.87,972.6,839.15Z" />
      <path class="cls-4"
        d="M592.75,791.16a189,189,0,0,0-8.71,57.9c0,81.38,52.63,127.16,119,144.89C626.15,959.22,592.92,792,592.75,791.16Z" />
      <rect class="cls-3" x="635.89" y="1030.21" width="285.12" height="34.11" rx="12.37" />
      <rect class="cls-3" x="635.89" y="1163.91" width="285.12" height="34.11" rx="12.37" />
      <rect class="cls-3" x="664.33" y="1075.59" width="228.24" height="76.32" rx="15.84" />
    </g>
  </g>
</svg>